<svg xmlns="http://www.w3.org/2000/svg" width="30" height="30" viewBox="0 0 30 30">
  <defs>
    <style>
      .cls-1 {
        fill-rule: evenodd;
      }
    </style>
  </defs>
  <path id="검정벡터패스" class="cls-1" d="M9.176,18.322a0.861,0.861,0,0,0-.047-0.228c-0.029-.1-0.037-0.208-0.064-0.3-0.019-.069-0.016-0.13-0.035-0.2-0.057-.2-0.084-0.43-0.141-0.633s-0.066-.412-0.123-0.615c-0.037-.133-0.049-0.277-0.088-0.416-0.03-.106-0.039-0.222-0.07-0.334-0.116-.412-0.161-0.859-0.275-1.271C8.292,14.178,8.29,14.04,8.25,13.9S8.2,13.622,8.162,13.482c-0.108-.385-0.15-0.8-0.258-1.189-0.047-.168-0.052-0.335-0.1-0.5-0.037-.133-0.049-0.277-0.088-0.416C7.611,11,7.57,10.589,7.465,10.213c-0.04-.142-0.042-0.28-0.082-0.422-0.1-.339-0.134-0.709-0.229-1.049C7.125,8.637,7.125,8.537,7.1,8.432,7.036,8.219,7.009,7.983,6.949,7.77,6.933,7.71,6.937,7.659,6.92,7.6,6.862,7.394,6.844,7.172,6.785,6.961,6.748,6.828,6.736,6.684,6.7,6.545c-0.063-.226-0.1-0.471-0.152-0.7H3.8A0.352,0.352,0,0,0,3.738,5.83a0.387,0.387,0,0,1-.176-0.111A0.381,0.381,0,0,1,3.65,5.168a0.624,0.624,0,0,1,.316-0.047H6.7a0.8,0.8,0,0,1,.275.023,0.758,0.758,0,0,1,.287.633c0.047,0.17.062,0.351,0.111,0.527,0.037,0.133.049,0.276,0.088,0.416,0.063,0.226.1,0.471,0.152,0.7h18.6a0.579,0.579,0,0,0,.082.023,0.382,0.382,0,0,1,.193.193,0.653,0.653,0,0,1-.023.393c-0.067.248-.085,0.5-0.152,0.75-0.107.4-.154,0.823-0.264,1.219-0.039.139-.051,0.283-0.088,0.416-0.049.176-.064,0.358-0.111,0.527-0.017.06-.013,0.111-0.029,0.17-0.049.177-.074,0.374-0.123,0.551-0.019.069-.016,0.13-0.035,0.2-0.05.177-.074,0.374-0.123,0.551-0.019.069-.016,0.13-0.035,0.2-0.067.24-.1,0.5-0.164,0.744-0.019.069-.016,0.13-0.035,0.2-0.067.239-.1,0.5-0.164,0.744-0.019.069-.016,0.13-0.035,0.2-0.058.205-.076,0.428-0.135,0.639-0.045.16-.059,0.332-0.105,0.5-0.04.143-.052,0.3-0.094,0.445-0.118.422-.168,0.877-0.281,1.3-0.026.1-.026,0.185-0.053,0.281-0.07.249-.1,0.523-0.17,0.773-0.079.3-.045,0.508-0.357,0.58H9.615a1.467,1.467,0,0,0-.357.018,0.809,0.809,0,0,0-.568.516,0.8,0.8,0,0,0,.568,1.008,1.169,1.169,0,0,0,.293.018H23.772a0.724,0.724,0,0,1,.2.012,0.359,0.359,0,0,1,.193.152,0.328,0.328,0,0,1,.059.246,0.372,0.372,0,0,1-.258.3,0.936,0.936,0,0,1-.24.012H10.137a3.606,3.606,0,0,1-1.295-.117,1.512,1.512,0,0,1-.85-0.949A1.576,1.576,0,0,1,8,19.348a1.459,1.459,0,0,1,.8-0.908A1.3,1.3,0,0,1,9.176,18.322ZM7.77,8.145a1.081,1.081,0,0,0,.041.182c0.029,0.1.037,0.208,0.064,0.3,0.019,0.069.016,0.13,0.035,0.2C7.96,9.007,7.984,9.2,8.033,9.381c0.037,0.133.039,0.26,0.076,0.393,0.136,0.484.187,1.01,0.322,1.494,0.059,0.211.077,0.433,0.135,0.639,0.019,0.069.016,0.13,0.035,0.2,0.05,0.176.074,0.374,0.123,0.551,0.017,0.059.013,0.11,0.029,0.17C8.8,13,8.816,13.178,8.865,13.354c0.037,0.133.049,0.277,0.088,0.416,0.03,0.106.039,0.222,0.07,0.334,0.116,0.412.16,0.859,0.275,1.271,0.047,0.169.052,0.335,0.1,0.5,0.03,0.106.039,0.222,0.07,0.334,0.116,0.412.161,0.859,0.275,1.271,0.051,0.184.069,0.377,0.117,0.557a1.122,1.122,0,0,0,.053.252,1.135,1.135,0,0,0,.27.006H23.572a2.768,2.768,0,0,1,.094-0.434c0.049-.176.064-0.358,0.111-0.527,0.027-.1.026-0.186,0.053-0.281,0.1-.349.137-0.729,0.234-1.078,0.059-.211.077-0.433,0.135-0.639l0.012-.088c0.048-.17.062-0.352,0.111-0.527,0.037-.133.049-0.277,0.088-0.416,0.136-.484.187-1.01,0.322-1.494,0.059-.211.077-0.433,0.135-0.639l0.012-.088c0.055-.2.072-0.407,0.129-0.609,0.04-.143.052-0.3,0.094-0.445,0.037-.133.049-0.277,0.088-0.416,0.116-.412.16-0.859,0.275-1.271,0.019-.069.016-0.13,0.035-0.2,0.06-.213.087-0.449,0.146-0.662,0.032-.114.031-0.233,0.07-0.34H7.77Zm3.539,13.893a1.4,1.4,0,0,1,1.435.867,1.442,1.442,0,0,1,.094.815,2.149,2.149,0,0,1-.1.322,1.438,1.438,0,0,1-.844.768,2.886,2.886,0,0,1-.352.07,0.622,0.622,0,0,1-.211-0.006c-0.053-.012-0.1,0-0.147-0.012a2.083,2.083,0,0,1-.31-0.1,1.391,1.391,0,0,1-.815-0.949,1.257,1.257,0,0,1-.035-0.568,2.018,2.018,0,0,1,.076-0.293,1.452,1.452,0,0,1,.779-0.809,1.964,1.964,0,0,1,.264-0.082A0.679,0.679,0,0,0,11.309,22.037Zm9.287,0a1.4,1.4,0,0,1,1.43.861,1.5,1.5,0,0,1,.012,1.108,1.448,1.448,0,0,1-.779.773,2.232,2.232,0,0,1-.369.094H20.824a1.161,1.161,0,0,1-.592-0.082,1.4,1.4,0,0,1-.867-0.908A1.108,1.108,0,0,1,19.3,23.42l0.006-.152a1.957,1.957,0,0,1,.07-0.293,1.461,1.461,0,0,1,.773-0.826,2.022,2.022,0,0,1,.281-0.088A0.913,0.913,0,0,0,20.6,22.037Zm-9.176.715a0.355,0.355,0,0,1-.076.006,1.078,1.078,0,0,0-.176.047,0.749,0.749,0,0,0-.4.422,1.034,1.034,0,0,0-.035.158,0.548,0.548,0,0,0,.035.281,0.7,0.7,0,0,0,.422.445,0.579,0.579,0,0,0,.322.047,0.738,0.738,0,0,0,.574-0.434,0.715,0.715,0,0,0-.451-0.943A0.847,0.847,0,0,0,11.42,22.752Zm9.287,0a0.354,0.354,0,0,1-.076.006l-0.146.035a0.743,0.743,0,0,0-.422.41,0.7,0.7,0,0,0,.4.9,0.582,0.582,0,0,0,.334.053,0.737,0.737,0,0,0,.574-0.428,1,1,0,0,0,.047-0.164,0.62,0.62,0,0,0-.029-0.316,0.717,0.717,0,0,0-.486-0.475A0.782,0.782,0,0,0,20.707,22.752Z"/>
</svg>
