<svg xmlns="http://www.w3.org/2000/svg" width="30" height="30" viewBox="0 0 30 30">
  <defs>
    <style>
      .cls-1 {
        fill-rule: evenodd;
      }
    </style>
  </defs>
  <path id="색상_칠_1" data-name="색상 칠 1" class="cls-1" d="M9.217,3.4a6.227,6.227,0,0,1,1.717.17,4.852,4.852,0,0,1,.533.146c0.149,0.061.3,0.125,0.445,0.188a3.381,3.381,0,0,1,.41.205c0.217,0.133.42,0.279,0.621,0.428,0.081,0.06.149,0.145,0.229,0.205a2.135,2.135,0,0,1,.217.205,1.682,1.682,0,0,1,.164.17c0.032,0.043.085,0.074,0.117,0.117,0.085,0.112.187,0.21,0.27,0.322,0.277,0.377.538,0.766,0.791,1.172,0.067,0.108.123,0.222,0.188,0.328a0.4,0.4,0,0,0,.088.152A0.39,0.39,0,0,1,15.065,7.1c0.063-.1.114-0.21,0.176-0.311,0.094-.153.174-0.306,0.27-0.457,0.12-.19.259-0.37,0.387-0.551A5.59,5.59,0,0,1,18.4,3.762,7.019,7.019,0,0,1,19.2,3.533c0.1-.027.19-0.022,0.293-0.047,0.13-.031.285-0.028,0.422-0.059,0.05-.011.1,0,0.146-0.012l0.205-.006c0.048-.01.121,0.006,0.176-0.006a1.067,1.067,0,0,1,.346,0H20.93c0.1,0.015.213,0,.311,0.023,0.076,0.017.16,0.01,0.24,0.029,0.248,0.059.5,0.077,0.732,0.152C22.4,3.672,22.6,3.721,22.781,3.8,22.89,3.842,23,3.9,23.109,3.943a2.26,2.26,0,0,1,.27.123c0.134,0.082.277,0.15,0.41,0.234,0.165,0.1.324,0.219,0.48,0.334,0.087,0.064.165,0.14,0.252,0.205,0.032,0.024.056,0.064,0.088,0.088a1.569,1.569,0,0,1,.3.287l0.105,0.1c0.081,0.107.184,0.2,0.264,0.3,0.185,0.247.362,0.5,0.527,0.768a6.818,6.818,0,0,1,.457.99c0.065,0.159.1,0.333,0.152,0.5,0.066,0.2.078,0.428,0.129,0.645,0.04,0.17.015,0.372,0.053,0.545V9.217a1.229,1.229,0,0,1,0,.352V9.727a1.99,1.99,0,0,1-.023.322l-0.018.264c-0.052.23-.042,0.479-0.1,0.7-0.05.2-.068,0.4-0.123,0.592a12.8,12.8,0,0,1-.422,1.359c-0.065.159-.108,0.313-0.176,0.469-0.156.36-.315,0.721-0.492,1.061-0.072.137-.125,0.279-0.205,0.41s-0.157.3-.246,0.445c-0.166.272-.322,0.551-0.492,0.82-0.365.579-.764,1.128-1.154,1.682-0.3.42-.638,0.807-0.943,1.219-0.144.194-.317,0.368-0.463,0.563-0.036.047-.087,0.088-0.123,0.135-0.138.184-.3,0.344-0.439,0.527-0.058.077-.141,0.14-0.2,0.217-0.187.247-.423,0.451-0.609,0.7-0.066.087-.156,0.158-0.223,0.246l-0.064.059c-0.079.1-.179,0.188-0.258,0.293l-0.07.064c-0.121.16-.283,0.285-0.4,0.445l-0.094.088c-0.125.166-.3,0.292-0.422,0.457l-0.123.117c-0.131.173-.314,0.3-0.445,0.475-0.052.069-.129,0.117-0.182,0.188l-0.217.211a1.859,1.859,0,0,1-.182.188l-0.234.246c-0.061.061-.13,0.117-0.187,0.182-0.148.166-.312,0.317-0.469,0.475-0.233.233-.464,0.47-0.7,0.7l-0.662.662a0.843,0.843,0,0,1-.357.287,0.491,0.491,0,0,1-.463-0.24l-0.973-.973c-0.173-.173-0.343-0.349-0.516-0.521-0.13-.13-0.264-0.255-0.387-0.392s-0.251-.224-0.352-0.358l-0.111-.105c-0.057-.057-0.108-0.119-0.164-0.176a2.066,2.066,0,0,1-.193-0.2l-0.182-.176c-0.048-.064-0.117-0.108-0.164-0.17s-0.109-.1-0.152-0.158c-0.142-.187-0.339-0.328-0.48-0.516l-0.07-.064a1.386,1.386,0,0,1-.123-0.141l-0.094-.088c-0.052-.069-0.117-0.124-0.17-0.193l-0.088-.082c-0.064-.085-0.153-0.151-0.217-0.234C10,21.57,9.76,21.379,9.58,21.141,9.551,21.1,9.5,21.073,9.475,21.035c-0.1-.132-0.222-0.243-0.322-0.375-0.024-.032-0.064-0.056-0.088-0.088-0.117-.155-0.265-0.286-0.381-0.439-0.075-.1-0.167-0.184-0.24-0.281-0.263-.349-0.572-0.663-0.832-1.014C7.446,18.615,7.265,18.4,7.1,18.182c-0.378-.514-0.757-1.03-1.113-1.564-0.256-.385-0.489-0.787-0.732-1.184-0.105-.172-0.189-0.357-0.293-0.527-0.045-.074-0.066-0.154-0.111-0.229a3.433,3.433,0,0,1-.2-0.4c-0.044-.1-0.108-0.2-0.152-0.3-0.079-.181-0.157-0.36-0.234-0.539C4.122,13.1,4.02,12.752,3.891,12.4a12.45,12.45,0,0,1-.316-1.23L3.48,10.606l-0.059-.557L3.416,9.867c-0.02-.092.01-0.2-0.012-0.3a1.067,1.067,0,0,1,0-.346L3.41,8.971c0.015-.066,0-0.14.018-0.211L3.492,8.3c0.061-.237.1-0.475,0.17-0.7a6.236,6.236,0,0,1,.785-1.617A5.446,5.446,0,0,1,5.561,4.781c0.1-.073.187-0.164,0.287-0.234,0.246-.174.51-0.32,0.773-0.48a1.387,1.387,0,0,1,.17-0.076c0.064-.028.134-0.071,0.2-0.1,0.154-.068.315-0.122,0.475-0.182,0.243-.09.509-0.135,0.773-0.205l0.369-.059L9.064,3.4A0.641,0.641,0,0,0,9.217,3.4ZM9.17,4.1a0.855,0.855,0,0,1-.2.012l-0.41.047c-0.092.022-.193,0.026-0.287,0.053a7.123,7.123,0,0,0-.791.234A5.352,5.352,0,0,0,4.447,7.482a6.982,6.982,0,0,0-.234.791c-0.026.094-.031,0.195-0.053,0.287-0.038.159-.017,0.334-0.053,0.5V9.176a1.85,1.85,0,0,0,0,.445V9.773c0.024,0.107.007,0.236,0.029,0.34l0.018,0.228c0.052,0.227.046,0.465,0.105,0.686s0.09,0.481.164,0.709c0.055,0.169.1,0.345,0.152,0.516,0.093,0.277.194,0.559,0.3,0.82,0.1,0.228.183,0.446,0.281,0.668,0.03,0.068.076,0.138,0.105,0.205a3.8,3.8,0,0,0,.223.445c0.068,0.112.108,0.234,0.176,0.346,0.193,0.318.365,0.648,0.563,0.961,0.327,0.519.675,1.021,1.025,1.518,0.2,0.289.429,0.564,0.639,0.85,0.278,0.378.6,0.721,0.885,1.1,0.1,0.128.214,0.24,0.311,0.369,0.03,0.04.076,0.072,0.105,0.111,0.107,0.142.233,0.263,0.34,0.4,0.049,0.065.121,0.117,0.17,0.182,0.186,0.246.424,0.446,0.609,0.691,0.053,0.071.127,0.127,0.182,0.2,0.078,0.1.194,0.191,0.275,0.3l0.076,0.07c0.1,0.133.234,0.236,0.334,0.369l0.088,0.082c0.095,0.125.222,0.221,0.316,0.346L11.7,22.395c0.175,0.231.423,0.4,0.6,0.633L12.481,23.2a2.064,2.064,0,0,0,.2.205c0.066,0.066.127,0.139,0.193,0.205L13,23.731a4.808,4.808,0,0,0,.381.387c0.232,0.243.472,0.477,0.709,0.715,0.217,0.219.433,0.438,0.65,0.656l0.182,0.182a0.284,0.284,0,0,0,.088.082,0.584,0.584,0,0,1,.082-0.082l0.188-.187q0.29-.29.58-0.58c0.156-.157.307-0.318,0.463-0.475a3.048,3.048,0,0,0,.293-0.3l0.088-.082a3.238,3.238,0,0,0,.3-0.316l0.123-.117c0.066-.066.127-0.139,0.193-0.205a2.064,2.064,0,0,0,.2-0.205l0.182-.176c0.137-.182.331-0.316,0.469-0.5l0.129-.123c0.128-.17.305-0.3,0.434-0.469l0.088-.082c0.1-.133.233-0.236,0.334-0.369l0.076-.07c0.081-.107.2-0.2,0.275-0.3,0.055-.072.128-0.128,0.182-0.2,0.185-.245.424-0.446,0.609-0.691,0.049-.065.121-0.117,0.17-0.182,0.107-.141.233-0.263,0.34-0.4,0.03-.04.076-0.072,0.105-0.111,0.1-.129.215-0.241,0.311-0.369,0.281-.375.607-0.718,0.885-1.1,0.478-.65.981-1.29,1.418-1.98,0.228-.361.444-0.729,0.668-1.1,0.119-.2.209-0.409,0.328-0.6,0.025-.041.036-0.086,0.059-0.129,0.053-.1.1-0.2,0.152-0.311,0.039-.088.1-0.18,0.135-0.269,0.107-.242.209-0.487,0.311-0.732,0.173-.419.282-0.867,0.428-1.318l0.135-.6c0.056-.222.054-0.458,0.105-0.686,0.022-.1.008-0.2,0.029-0.3l0.006-.164c0.005-.025,0-0.073.006-0.105A2.432,2.432,0,0,0,25.9,9.328,4.26,4.26,0,0,0,25.764,8.2a4.658,4.658,0,0,0-.135-0.48c-0.032-.08-0.044-0.157-0.076-0.234a5.5,5.5,0,0,0-.369-0.768C25.054,6.5,24.912,6.3,24.768,6.105c-0.066-.09-0.156-0.164-0.223-0.252a1.927,1.927,0,0,0-.328-0.334l-0.059-.064c-0.092-.069-0.172-0.155-0.264-0.223-0.146-.107-0.292-0.219-0.445-0.316-0.118-.075-0.244-0.138-0.363-0.211a1.781,1.781,0,0,0-.217-0.1c-0.113-.05-0.234-0.11-0.351-0.158C22.351,4.378,22.17,4.334,22,4.277c-0.2-.065-0.422-0.078-0.639-0.129-0.083-.02-0.173-0.012-0.252-0.029l-0.164-.006A1.884,1.884,0,0,0,20.584,4.1a3.632,3.632,0,0,0-.709.041c-0.1.023-.209,0.017-0.3,0.041-0.125.031-.239,0.031-0.357,0.064a5.719,5.719,0,0,0-.709.229,4.846,4.846,0,0,0-.943.551c-0.1.075-.191,0.169-0.293,0.246l-0.076.082A0.978,0.978,0,0,0,17,5.543l-0.082.076c-0.063.084-.136,0.156-0.2,0.24-0.086.115-.192,0.221-0.275,0.34a14.611,14.611,0,0,0-1.014,1.682,0.729,0.729,0,0,1-.316.422,0.561,0.561,0,0,1-.082.012A0.289,0.289,0,0,1,14.9,8.309a0.48,0.48,0,0,1-.275-0.316c-0.054-.089-0.1-0.186-0.146-0.281a12.409,12.409,0,0,0-.809-1.348C13.537,6.173,13.386,6,13.248,5.813,13.2,5.747,13.127,5.7,13.078,5.631a1.447,1.447,0,0,0-.269-0.275l-0.076-.082C12.631,5.2,12.542,5.1,12.44,5.027c-0.187-.137-0.384-0.258-0.586-0.381a1.785,1.785,0,0,0-.217-0.1c-0.082-.036-0.172-0.082-0.258-0.117-0.144-.059-0.3-0.1-0.451-0.146-0.1-.033-0.2-0.036-0.3-0.064A5.967,5.967,0,0,0,9.17,4.1Z"/>
</svg>
