<svg xmlns="http://www.w3.org/2000/svg" width="30" height="30" viewBox="0 0 30 30">
  <defs>
    <style>
      .cls-1 {
        fill-rule: evenodd;
      }
    </style>
  </defs>
  <path id="색상_칠_1" data-name="색상 칠 1" class="cls-1" d="M16.53,4.89a6.471,6.471,0,0,1,2.124.294c0.155,0.052.3,0.083,0.45,0.144,0.193,0.08.386,0.171,0.57,0.252a6.174,6.174,0,0,1,1.062.624c0.064,0.045.123,0.1,0.186,0.15A6.467,6.467,0,0,1,22.356,7.86c0.176,0.25.312,0.526,0.474,0.792a1.02,1.02,0,0,1,.054.126c0.035,0.078.085,0.16,0.12,0.24,0.057,0.129.095,0.256,0.15,0.39a8.7,8.7,0,0,1,.288.96l0.078,0.42,0.06,0.522L23.586,11.5c0.008,0.039,0,.1.006,0.15a1.445,1.445,0,0,1,0,.408c-0.01.047,0,.111-0.006,0.15l-0.012.258c-0.044.2-.029,0.4-0.078,0.594-0.03.115-.039,0.237-0.072,0.354a8.485,8.485,0,0,1-.276.912,8.371,8.371,0,0,1-.9,1.662c-0.134.19-.3,0.356-0.438,0.54-0.04.053-.1,0.091-0.144,0.144a1.275,1.275,0,0,1-.24.24L21.342,17c-0.11.083-.2,0.188-0.312,0.27-0.152.113-.3,0.233-0.456,0.342-0.185.13-.387,0.241-0.582,0.36-0.053.032-.109,0.046-0.162,0.078a6.127,6.127,0,0,1-1.056.444,9.357,9.357,0,0,1-.918.24c-0.1.026-.2,0.026-0.3,0.048l-0.462.048H17a2.133,2.133,0,0,1-.408.012,1.334,1.334,0,0,1-.246-0.006H16.218L15.8,18.8c-0.084-.019-0.175-0.015-0.264-0.036l-0.252-.048a1.069,1.069,0,0,1-.09.192c-0.053.119-.111,0.233-0.162,0.348-0.169.383-.361,0.755-0.528,1.134-0.43.975-.908,1.917-1.338,2.892-0.113.256-.253,0.512-0.366,0.768-0.156.353-.332,0.695-0.486,1.044a1.964,1.964,0,0,1-.6.894,1.33,1.33,0,0,1-1,.2,4.126,4.126,0,0,1-.57-0.24,2.3,2.3,0,0,1-.312-0.15,1.314,1.314,0,0,1-.5-0.63,1.436,1.436,0,0,1-.048-0.2,1.183,1.183,0,0,1,0-.51,3.859,3.859,0,0,1,.222-0.534c0.082-.186.164-0.36,0.246-0.546,0.113-.256.253-0.512,0.366-0.768,0.494-1.122,1.047-2.208,1.542-3.33,0.179-.406.384-0.8,0.564-1.212,0.064-.145.138-0.288,0.2-0.438a0.6,0.6,0,0,0,.066-0.144,3.019,3.019,0,0,1-.4-0.318c-0.061-.046-0.113-0.1-0.174-0.144l-0.084-.09a1.207,1.207,0,0,1-.228-0.228l-0.09-.084c-0.046-.061-0.1-0.113-0.144-0.174s-0.09-.089-0.126-0.138c-0.114-.152-0.233-0.3-0.342-0.456a7.41,7.41,0,0,1-.756-1.434,9.19,9.19,0,0,1-.312-1.038c-0.039-.139-0.037-0.275-0.072-0.42-0.042-.177-0.031-0.391-0.072-0.576L9.7,12.174A1.258,1.258,0,0,1,9.7,11.85V11.676l0.024-.438c0.022-.1.012-0.209,0.036-0.312,0.05-.214.061-0.435,0.12-0.642a7,7,0,0,1,.216-0.732c0.076-.185.142-0.371,0.222-0.552a5.876,5.876,0,0,1,.39-0.726c0.072-.116.133-0.232,0.21-0.342,0.152-.216.323-0.415,0.48-0.624l0.042-.036a1.533,1.533,0,0,1,.132-0.156L11.64,7.05a1.655,1.655,0,0,1,.312-0.306c0.039-.03.069-0.078,0.108-0.108,0.11-.083.208-0.183,0.318-0.264A8.25,8.25,0,0,1,14,5.424c0.3-.13.626-0.212,0.954-0.318,0.253-.082.532-0.093,0.8-0.156,0.088-.02.18-0.011,0.264-0.03Zm0.042,2.07a0.753,0.753,0,0,1-.162.006l-0.426.042-0.312.054a6.867,6.867,0,0,0-.756.222,5.04,5.04,0,0,0-2.424,2,6.215,6.215,0,0,0-.462.966,6.329,6.329,0,0,0-.222.894c-0.037.153-.013,0.322-0.048,0.48v0.2a1.59,1.59,0,0,0,.012.4c0.025,0.115,0,.231.03,0.342,0.049,0.205.071,0.42,0.132,0.606,0.019,0.06.022,0.109,0.042,0.168,0.067,0.2.14,0.4,0.222,0.582a5.043,5.043,0,0,0,.378.666,4.631,4.631,0,0,0,2.076,1.758c0.146,0.064.3,0.133,0.462,0.186s0.307,0.082.462,0.126,0.34,0.045.51,0.084l0.126,0.006a2.2,2.2,0,0,0,.432.018h0.2l0.408-.036,0.33-.054c0.186-.05.374-0.085,0.552-0.144a4.893,4.893,0,0,0,3.024-2.784,6.773,6.773,0,0,0,.288-0.942c0.043-.16.035-0.333,0.072-0.5l0.012-.276a1.816,1.816,0,0,0-.006-0.48L21.516,11.4l-0.06-.438a6.576,6.576,0,0,0-.282-0.948,3.643,3.643,0,0,0-.21-0.468c-0.156-.256-0.307-0.5-0.48-0.738-0.071-.1-0.169-0.176-0.24-0.27a1.574,1.574,0,0,0-.294-0.294L19.9,8.184c-0.085-.064-0.161-0.141-0.246-0.2-0.152-.112-0.3-0.21-0.468-0.312A4.783,4.783,0,0,0,16.572,6.96Z"/>
</svg>
